<svg xmlns="http://www.w3.org/2000/svg" viewBox="0 0 100 100">
  <defs>
    <radialGradient id="butterfly3Gradient" cx="50%" cy="50%" r="50%" fx="50%" fy="50%">
      <stop offset="0%" style="stop-color:#C3B1E1;stop-opacity:1" />
      <stop offset="100%" style="stop-color:#FFB3BA;stop-opacity:0.8" />
    </radialGradient>
  </defs>
  <g transform="translate(50 50)">
    <!-- Left wing -->
    <path d="M-3,0 C-10,-10 -25,-15 -20,-25 C-15,-35 -5,-30 0,-20 C5,-10 0,-5 0,0 Z" fill="url(#butterfly3Gradient)" opacity="0.9">
      <animate attributeName="d" dur="2.5s" repeatCount="indefinite" values="
        M-3,0 C-10,-10 -25,-15 -20,-25 C-15,-35 -5,-30 0,-20 C5,-10 0,-5 0,0 Z;
        M-3,0 C-12,-12 -20,-18 -15,-28 C-10,-38 -3,-32 2,-22 C6,-12 0,-5 0,0 Z;
        M-3,0 C-10,-10 -25,-15 -20,-25 C-15,-35 -5,-30 0,-20 C5,-10 0,-5 0,0 Z"
      />
    </path>
    
    <!-- Right wing -->
    <path d="M3,0 C10,-10 25,-15 20,-25 C15,-35 5,-30 0,-20 C-5,-10 0,-5 0,0 Z" fill="url(#butterfly3Gradient)" opacity="0.9">
      <animate attributeName="d" dur="2.5s" repeatCount="indefinite" values="
        M3,0 C10,-10 25,-15 20,-25 C15,-35 5,-30 0,-20 C-5,-10 0,-5 0,0 Z;
        M3,0 C12,-12 20,-18 15,-28 C10,-38 3,-32 -2,-22 C-6,-12 0,-5 0,0 Z;
        M3,0 C10,-10 25,-15 20,-25 C15,-35 5,-30 0,-20 C-5,-10 0,-5 0,0 Z"
      />
    </path>
    
    <!-- Left middle wing -->
    <path d="M-3,0 C-15,-5 -20,5 -30,10 C-20,20 -10,15 -5,10 C-3,5 -1,3 0,0 Z" fill="url(#butterfly3Gradient)" opacity="0.8">
      <animate attributeName="d" dur="3s" repeatCount="indefinite" values="
        M-3,0 C-15,-5 -20,5 -30,10 C-20,20 -10,15 -5,10 C-3,5 -1,3 0,0 Z;
        M-3,0 C-18,-3 -25,8 -28,15 C-15,22 -8,18 -3,12 C-1,6 -1,3 0,0 Z;
        M-3,0 C-15,-5 -20,5 -30,10 C-20,20 -10,15 -5,10 C-3,5 -1,3 0,0 Z"
      />
    </path>
    
    <!-- Right middle wing -->
    <path d="M3,0 C15,-5 20,5 30,10 C20,20 10,15 5,10 C3,5 1,3 0,0 Z" fill="url(#butterfly3Gradient)" opacity="0.8">
      <animate attributeName="d" dur="3s" repeatCount="indefinite" values="
        M3,0 C15,-5 20,5 30,10 C20,20 10,15 5,10 C3,5 1,3 0,0 Z;
        M3,0 C18,-3 25,8 28,15 C15,22 8,18 3,12 C1,6 1,3 0,0 Z;
        M3,0 C15,-5 20,5 30,10 C20,20 10,15 5,10 C3,5 1,3 0,0 Z"
      />
    </path>
    
    <!-- Left lower wing -->
    <path d="M-2,0 C-10,10 -15,20 -10,25 C-5,30 0,25 0,20 C0,10 0,5 0,0 Z" fill="url(#butterfly3Gradient)" opacity="0.7">
      <animate attributeName="d" dur="2.8s" repeatCount="indefinite" values="
        M-2,0 C-10,10 -15,20 -10,25 C-5,30 0,25 0,20 C0,10 0,5 0,0 Z;
        M-2,0 C-12,12 -18,22 -12,28 C-6,32 0,28 0,22 C0,12 0,5 0,0 Z;
        M-2,0 C-10,10 -15,20 -10,25 C-5,30 0,25 0,20 C0,10 0,5 0,0 Z"
      />
    </path>
    
    <!-- Right lower wing -->
    <path d="M2,0 C10,10 15,20 10,25 C5,30 0,25 0,20 C0,10 0,5 0,0 Z" fill="url(#butterfly3Gradient)" opacity="0.7">
      <animate attributeName="d" dur="2.8s" repeatCount="indefinite" values="
        M2,0 C10,10 15,20 10,25 C5,30 0,25 0,20 C0,10 0,5 0,0 Z;
        M2,0 C12,12 18,22 12,28 C6,32 0,28 0,22 C0,12 0,5 0,0 Z;
        M2,0 C10,10 15,20 10,25 C5,30 0,25 0,20 C0,10 0,5 0,0 Z"
      />
    </path>
    
    <!-- Body -->
    <path d="M0,-15 Q1,-8 0,0 Q-1,8 0,15 Q1,25 0,30" stroke="#C3B1E1" stroke-width="2" fill="none"/>
    
    <!-- Antenna -->
    <path d="M0,-15 Q-5,-20 -8,-25" stroke="#C3B1E1" stroke-width="1" fill="none"/>
    <path d="M0,-15 Q5,-20 8,-25" stroke="#C3B1E1" stroke-width="1" fill="none"/>
    <circle cx="-8" cy="-25" r="1.2" fill="#FFD700"/>
    <circle cx="8" cy="-25" r="1.2" fill="#FFD700"/>
    
    <!-- Decorative dots -->
    <circle cx="-15" cy="-15" r="1" fill="#FFD700"/>
    <circle cx="-20" cy="-5" r="0.8" fill="#FFD700"/>
    <circle cx="-18" cy="5" r="1.2" fill="#FFD700"/>
    <circle cx="15" cy="-15" r="1" fill="#FFD700"/>
    <circle cx="20" cy="-5" r="0.8" fill="#FFD700"/>
    <circle cx="18" cy="5" r="1.2" fill="#FFD700"/>
  </g>
</svg>
